<svg width="656" height="165" viewBox="0 0 656 165" fill="none" xmlns="http://www.w3.org/2000/svg">
<path opacity="0.2" d="M28.3345 27.3657C32.4389 30.058 36.6901 32.5197 41.0684 34.7391C41.2928 34.8553 41.523 34.96 41.7581 35.0529C45.0764 36.4972 48.3992 36.2045 49.1681 34.4321C49.3512 33.9722 49.3714 33.4635 49.2254 32.9903C48.9636 32.0482 49.0397 31.0443 49.4407 30.1527C50.6988 27.3874 54.875 26.5762 58.7731 28.3497C62.6712 30.1232 64.8033 33.8044 63.5452 36.5697C63.1327 37.4569 62.4234 38.1724 61.5397 38.5929C61.0866 38.7919 60.718 39.1437 60.4982 39.5868C59.6947 41.3529 61.6219 44.0248 64.8909 45.5775C65.1233 45.6832 65.3016 45.7644 65.5264 45.8666C70.0887 47.7338 74.7592 49.3248 79.5126 50.6311C78.1887 55.3554 76.6024 60.0022 74.761 64.5498C74.6588 64.7744 74.5531 65.0068 74.4473 65.2392C72.8876 68.5029 70.198 70.4673 68.4487 69.6247C68.0066 69.403 67.6551 69.0349 67.454 68.5831C67.0432 67.6835 66.323 66.961 65.4244 66.5472C62.6501 65.285 58.9726 67.4263 57.2036 71.3147C55.4345 75.2031 56.2363 79.3823 59.0107 80.6446C59.9016 81.0461 60.9059 81.1187 61.8451 80.8496C62.3178 80.7044 62.8262 80.7276 63.2838 80.9152C65.0585 81.7226 65.3511 85.0064 63.9153 88.3266L63.6299 88.954C61.4132 93.3538 58.9412 97.6203 56.2264 101.732C52.1217 98.9999 47.8585 96.514 43.4594 94.287C43.2531 94.179 43.0409 94.0825 42.8239 93.9978C39.5021 92.5613 36.1829 92.8463 35.4181 94.6299C35.2306 95.0873 35.2076 95.5956 35.3531 96.0682C35.6182 97.0105 35.5448 98.0157 35.1455 98.9093C33.8874 101.675 29.7071 102.475 25.8168 100.705C21.9265 98.9347 19.7831 95.2576 21.0412 92.4923C21.4487 91.6034 22.1557 90.886 23.0388 90.4656C23.4903 90.2631 23.86 89.9141 24.0881 89.4752C24.8951 87.7014 22.9566 85.0337 19.6912 83.4733C19.4587 83.3675 19.2262 83.2617 19.0014 83.1595C14.4467 81.3322 9.79332 79.7613 5.06307 78.4541L28.3345 27.3657Z" fill="#FFF2BE"/>
<path opacity="0.2" d="M227.301 94.7546C231.425 89.0868 235.875 83.6646 240.631 78.5158C240.879 78.2675 241.076 78.0707 241.333 77.8139C245.04 74.2441 249.602 72.9677 251.51 74.9613C251.988 75.4768 252.272 76.1422 252.314 76.844C252.431 78.2261 253.03 79.5227 254.007 80.5067C257.071 83.5698 263.028 82.5584 267.325 78.261C271.623 73.9635 272.642 67.998 269.579 64.9348C268.595 63.9576 267.299 63.358 265.917 63.2411C265.215 63.1966 264.548 62.9164 264.025 62.4457C262.066 60.4863 263.317 55.9671 266.887 52.2604C267.143 52.0035 267.4 51.7467 267.648 51.4985C272.785 46.7779 278.18 42.3477 283.81 38.2287C287.926 43.8982 292.374 49.3184 297.132 54.4609C297.353 54.7075 297.587 54.9417 297.833 55.1625C301.538 58.7305 306.1 60.0046 308.009 58.01C308.487 57.4942 308.771 56.8287 308.814 56.1269C308.931 54.7398 309.531 53.4375 310.509 52.4463C313.565 49.3902 319.53 50.4071 323.826 54.7024C328.121 58.9977 329.138 64.9628 326.082 68.0189C325.095 68.9998 323.795 69.603 322.41 69.723C321.708 69.7678 321.041 70.0484 320.518 70.5194C318.558 72.4798 319.806 76.9984 323.374 80.7033C323.631 80.96 323.879 81.2081 324.136 81.4648C329.272 86.1872 334.671 90.6147 340.308 94.7264C336.188 100.356 331.758 105.752 327.038 110.888C326.79 111.136 326.533 111.393 326.276 111.65C322.57 115.22 318.008 116.496 316.091 114.511C315.62 113.989 315.34 113.322 315.296 112.62C315.176 111.234 314.574 109.935 313.593 108.949C310.539 105.894 304.582 106.906 300.276 111.212C295.97 115.518 294.967 121.466 298.021 124.521C299.007 125.501 300.307 126.104 301.693 126.223C302.394 126.265 303.06 126.549 303.575 127.027C305.569 128.935 304.293 133.497 300.723 137.204C300.466 137.46 300.269 137.657 300.021 137.906C294.88 142.67 289.457 147.121 283.782 151.235C279.694 145.583 275.283 140.172 270.572 135.029C270.315 134.772 270.067 134.524 269.81 134.267C266.105 130.699 261.544 129.425 259.626 131.411C259.153 131.933 258.872 132.6 258.83 133.303C258.708 134.688 258.105 135.987 257.126 136.975C254.07 140.031 248.105 139.031 243.801 134.727C239.497 130.424 238.497 124.458 241.553 121.402C242.546 120.426 243.847 119.826 245.234 119.707C245.936 119.667 246.603 119.383 247.117 118.902C249.069 116.95 247.837 112.431 244.269 108.726L243.568 108.025C238.413 103.284 232.981 98.8524 227.301 94.7546Z" fill="#FFF2BE"/>
<path opacity="0.2" d="M141.064 57.0722C139.648 53.8863 138.419 50.6205 137.384 47.2913C137.338 47.1226 137.302 46.9888 137.256 46.8143C136.64 44.3297 137.225 42.047 138.558 41.7209C138.899 41.6433 139.256 41.6864 139.569 41.8428C140.193 42.1362 140.901 42.2004 141.568 42.0242C143.649 41.4664 144.695 38.6487 143.913 35.7286C143.13 32.8086 140.814 30.8855 138.733 31.4432C138.067 31.624 137.486 32.0335 137.092 32.5998C136.898 32.8912 136.612 33.1086 136.279 33.2167C134.948 33.5734 133.312 31.9107 132.603 29.451C132.556 29.2765 132.51 29.1019 132.464 28.9333C131.708 25.5467 131.142 22.1205 130.768 18.6707C134.234 18.3079 137.675 17.7398 141.073 16.9693C141.235 16.9355 141.394 16.8928 141.55 16.8415C144.009 16.1329 145.692 14.4848 145.308 13.1663C145.204 12.8321 144.988 12.5441 144.697 12.3513C144.128 11.9556 143.716 11.3733 143.533 10.7055C142.976 8.62886 144.898 6.31212 147.817 5.53009C150.735 4.74805 153.558 5.79357 154.114 7.87019C154.291 8.53914 154.228 9.24907 153.935 9.87586C153.78 10.1895 153.735 10.5464 153.808 10.8888C154.164 12.2208 156.421 12.8069 158.905 12.1913C159.079 12.1446 159.248 12.0994 159.422 12.0527C162.734 11.0147 165.984 9.78993 169.157 8.38428C170.558 11.559 171.78 14.8094 172.819 18.1202C172.864 18.2889 172.911 18.4634 172.958 18.6379C173.574 21.1226 172.989 23.4052 171.657 23.7372C171.315 23.8099 170.958 23.7649 170.645 23.6094C170.018 23.3162 169.308 23.2525 168.64 23.4297C166.564 23.9858 165.518 26.8035 166.302 29.7294C167.086 32.6553 169.399 34.5667 171.475 34.0106C172.143 33.8297 172.725 33.4197 173.121 32.8525C173.314 32.5606 173.602 32.3446 173.936 32.2414C175.254 31.8571 176.901 33.5416 177.61 36.0013C177.657 36.1758 177.693 36.3096 177.738 36.4782C178.512 39.8779 179.081 43.321 179.442 46.7888C175.99 47.1441 172.562 47.6983 169.175 48.4488C169 48.4955 168.832 48.5407 168.657 48.5875C166.199 49.2961 164.515 50.9442 164.894 52.2642C165.001 52.5978 165.219 52.8848 165.511 53.0777C166.077 53.4748 166.487 54.0576 166.669 54.725C167.225 56.8017 165.311 59.1227 162.387 59.9062C159.462 60.6898 156.644 59.6369 156.087 57.5603C155.914 56.89 155.979 56.1802 156.272 55.5531C156.43 55.2407 156.473 54.8827 156.394 54.5417C156.039 53.2155 153.786 52.6221 151.302 53.2376L150.826 53.3654C147.501 54.4068 144.242 55.6445 141.064 57.0722Z" fill="#FFF2BE"/>
<path opacity="0.2" d="M558.952 9.40742C566.134 10.1661 573.266 11.3439 580.311 12.9349C580.673 13.0318 580.939 13.1029 581.3 13.1998C586.399 14.6693 589.89 18.0848 589.094 20.8163C588.88 21.5087 588.432 22.1055 587.827 22.5048C586.655 23.3232 585.807 24.5264 585.43 25.9053C584.274 30.2196 588.248 35.0172 594.313 36.6423C600.377 38.2673 606.218 36.0995 607.374 31.7852C607.733 30.4002 607.596 28.9331 606.986 27.6384C606.662 26.9901 606.572 26.2495 606.733 25.5428C607.413 22.767 612.141 21.5668 617.291 22.8435C617.653 22.9404 618.014 23.0373 618.364 23.131C625.227 25.2842 631.964 27.8182 638.544 30.7212C635.637 37.3009 633.098 44.0376 630.941 50.9L630.653 51.9726C629.377 57.1202 630.591 61.8499 633.357 62.5263C634.064 62.6873 634.804 62.5982 635.453 62.2742C636.753 61.6663 638.224 61.5307 639.613 61.8908C643.918 63.0442 646.085 68.8947 644.464 74.9443C642.843 80.994 638.041 84.9772 633.736 83.8238C632.353 83.4467 631.145 82.5975 630.322 81.4236C629.924 80.8155 629.329 80.3638 628.636 80.1451C625.887 79.4085 622.483 82.8494 621.015 87.9453C620.918 88.3068 620.847 88.5719 620.753 88.9214C619.155 95.97 617.977 103.107 617.223 110.295C610.072 109.52 602.971 108.345 595.951 106.778C595.601 106.684 595.239 106.588 594.878 106.491C589.779 105.021 586.288 101.606 587.084 98.8741C587.298 98.1817 587.746 97.5849 588.351 97.1856C589.529 96.3661 590.383 95.1597 590.763 93.7763C591.916 89.474 587.93 84.6731 581.877 83.0513C575.825 81.4295 569.972 83.5941 568.819 87.8964C568.452 89.2823 568.584 90.7532 569.192 92.052C569.516 92.7003 569.606 93.4409 569.445 94.1476C568.708 96.8952 564.037 98.1236 558.887 96.8469C558.525 96.75 558.26 96.6789 557.898 96.582C550.994 94.4474 544.224 91.9001 537.625 88.9539L558.952 9.40742Z" fill="#FFF2BE"/>
<path opacity="0.2" d="M436.771 62.3971C440.409 62.7814 444.021 63.3779 447.589 64.1837C447.772 64.2327 447.907 64.2687 448.09 64.3178C450.672 65.0621 452.44 66.7919 452.037 68.1753C451.929 68.526 451.702 68.8282 451.396 69.0304C450.802 69.4449 450.372 70.0543 450.181 70.7526C449.596 72.9377 451.609 75.3675 454.68 76.1905C457.752 77.0135 460.71 75.9156 461.295 73.7306C461.477 73.0291 461.408 72.2861 461.099 71.6304C460.935 71.3021 460.889 70.927 460.971 70.5691C461.315 69.1632 463.709 68.5554 466.318 69.202C466.501 69.251 466.684 69.3001 466.861 69.3476C470.337 70.4381 473.749 71.7215 477.082 73.1917C475.609 76.5241 474.324 79.9359 473.231 83.4115L473.085 83.9547C472.439 86.5617 473.054 88.9571 474.454 89.2997C474.812 89.3812 475.188 89.3361 475.516 89.1721C476.174 88.8642 476.92 88.7955 477.623 88.9778C479.803 89.562 480.901 92.525 480.08 95.5889C479.259 98.6529 476.827 100.67 474.647 100.086C473.946 99.895 473.334 99.465 472.917 98.8704C472.716 98.5625 472.414 98.3337 472.063 98.2229C470.671 97.8498 468.948 99.5925 468.204 102.173C468.155 102.356 468.119 102.491 468.071 102.668C467.262 106.238 466.665 109.852 466.283 113.493C462.662 113.1 459.065 112.505 455.51 111.711C455.333 111.664 455.15 111.615 454.966 111.566C452.384 110.822 450.616 109.092 451.019 107.708C451.128 107.358 451.354 107.055 451.661 106.853C452.258 106.438 452.69 105.827 452.883 105.127C453.467 102.948 451.448 100.516 448.382 99.6948C445.317 98.8734 442.353 99.9697 441.769 102.149C441.583 102.851 441.65 103.595 441.958 104.253C442.122 104.582 442.167 104.957 442.086 105.315C441.713 106.706 439.347 107.328 436.739 106.682C436.555 106.633 436.421 106.597 436.238 106.548C432.741 105.466 429.312 104.176 425.97 102.684L436.771 62.3971Z" fill="#FFF2BE"/>
</svg>
