<svg width="215" height="69" viewBox="0 0 215 69" fill="none" xmlns="http://www.w3.org/2000/svg">
<g clip-path="url(#clip0_227_55)">
<path d="M93.2047 68.0559C88.2255 64.6044 82.2646 62.864 76.2157 63.0956C74.5788 63.1394 72.9752 63.5697 71.5352 64.3516C70.0953 65.1335 68.8596 66.2449 67.9285 67.5956C65.3454 63.0956 60.2545 60.327 52.3715 60.3819C39.6443 60.5296 27.0199 66.4242 17.006 66.4242C7.41352 66.4242 0.407569 60.3819 0.64053 49.6439C1.04479 30.8403 16.9067 13.8574 28.7671 6.21776C35.5778 1.83117 41.2888 0.522411 45.0298 0.95523C47.75 1.26439 51.0217 4.41435 48.9628 9.06199C45.9308 15.8634 41.7375 15.2863 41.8849 12.0333C41.9739 9.92076 43.3751 8.59826 44.4337 7.85972C45.1189 7.39942 46.2906 7.26545 46.9004 7.25171C47.4999 6.74332 47.959 3.01627 43.0736 4.24603C38.1883 5.47578 32.3129 10.2883 26.7116 16.4783C21.1102 22.6683 12.3913 34.4403 10.2296 46.7688C9.22582 52.495 9.88702 62.9136 23.409 62.7831C34.8652 62.6903 51.7651 55.1263 67.2913 55.2602C73.3209 55.3083 78.5625 56.94 82.6564 59.4716C86.6818 61.9689 91.5055 65.5861 93.2047 68.0593M96.8807 33.9319H99.224C99.224 33.9319 87.4698 50.9698 80.8099 50.2004C77.1065 49.7779 78.2062 45.1749 78.2062 45.1749C78.2062 45.1749 72.9748 51.2996 68.2094 50.0767C63.862 48.9638 66.6609 41.7192 66.6609 41.7192C66.171 41.9219 56.7704 52.55 50.1721 50.0046C43.2723 47.339 46.8421 38.4421 48.1645 35.7628C49.2711 33.5094 50.5044 31.3144 50.5044 31.3144C50.5044 31.3144 49.439 31.6201 48.7915 31.7678C48.144 31.9155 47.1265 32.1113 47.1265 32.1113C47.1265 32.1113 43.8547 37.4357 41.854 40.115C39.8533 42.7944 31.3776 51.9145 26.3758 50.0767C21.374 48.239 22.6074 41.2452 25.4269 35.6666C29.9799 26.6186 40.7851 15.5165 47.2943 17.1791C53.8755 18.8554 48.4352 29.5453 48.4352 29.5453C48.4352 29.5453 49.7404 29.7239 52.8717 27.5702C57.3939 24.4786 63.3515 16.1692 69.8059 17.1447C72.8275 17.5947 75.6573 20.7206 71.7963 26.6358C70.5596 28.5388 68.4903 30.2392 66.8973 28.5595C65.9072 27.5289 66.7637 25.6156 67.8086 24.3103C68.2145 23.779 68.7439 23.3553 69.3506 23.0763C69.9573 22.7973 70.6229 22.6713 71.2893 22.7095C71.2893 22.7095 72.3548 20.2535 69.6517 20.305C67.4523 20.3462 61.9024 25.4782 58.7608 30.6651C55.9002 35.4365 51.5287 43.5501 55.9002 45.3123C59.9119 46.9371 67.5482 37.841 71.0803 33.0834C74.6124 28.3259 82.677 17.5157 89.426 17.0794C91.7419 16.9214 93.1362 19.0477 93.1362 19.0477L93.9276 17.8077H100.673C100.673 17.8077 87.9563 39.1223 86.9696 40.7299C86.1885 41.9974 85.1539 44.8348 88.0316 43.2409C90.9094 41.6471 96.8807 33.9319 96.8807 33.9319ZM44.492 31.7575C43.2723 31.3745 42.107 30.8353 41.025 30.1533C39.9797 29.4593 39.1237 28.5147 38.5343 27.4053C38.4761 27.2988 38.4076 27.3847 38.3391 27.474C38.2705 27.5633 37.9211 28.0339 35.5127 31.5686C33.1043 35.1033 29.5448 42.3787 32.885 43.6188C35.0194 44.4157 38.6166 40.6372 40.5659 38.1467C42.03 36.1973 43.3809 34.165 44.6119 32.0598C44.7009 31.8468 44.6119 31.8022 44.492 31.7575ZM47.171 20.4218C45.3964 19.0787 40.8879 22.2149 40.8742 25.4301C40.8434 28.7278 44.9373 29.6655 45.4615 29.6896C45.5838 29.7256 45.7147 29.719 45.8329 29.671C45.9511 29.623 46.0496 29.5363 46.1124 29.4251C46.5981 28.4838 47.0304 27.5159 47.4074 26.5259C48.0275 24.8805 48.8189 21.6824 47.171 20.4286M81.5738 38.1673C84.3145 34.4231 91.8172 21.2908 91.8172 21.2908C91.7848 21.0399 91.668 20.8075 91.4862 20.632C91.3043 20.4566 91.0682 20.3485 90.8169 20.3256C89.7891 20.2741 88.0522 20.6279 84.5955 24.9595C81.1387 29.2911 78.4734 32.7434 76.5241 36.3364C74.3863 40.2559 73.4408 43.0039 74.6809 43.7631C75.0804 43.9617 75.5386 44.0069 75.9691 43.8902C76.7673 43.6909 77.8122 42.8837 79.2477 41.2211C79.9328 40.4448 80.6762 39.4177 81.5738 38.1811M111.91 17.8489H105.504L101.886 23.7126H108.292L111.91 17.8489ZM206.55 7.27232C201.823 10.333 195.245 13.1119 188.938 12.4902C187.341 14.1493 185.639 16.0592 183.916 18.1546C194.878 20.3222 204.437 13.5241 209.538 7.72919C211.391 5.65087 212.983 3.35289 214.279 0.886529C211.962 3.31159 209.367 5.45491 206.55 7.27232ZM187.797 57.1289C186.882 58.5785 185.858 61.3712 188.856 59.6365C192.501 57.5137 197.698 49.6061 197.698 49.6061H200.048C197.909 52.915 195.525 56.0578 192.915 59.0079C189.209 63.1094 184.693 66.8536 181.524 66.4861C177.807 66.0532 178.969 61.1617 178.969 61.1617C178.969 61.1617 173.645 66.8399 169.982 66.4345C165.029 65.8884 166.536 59.7361 166.536 59.7361C166.536 59.7361 160.921 66.6578 157.104 66.4345C151.109 66.091 152.603 58.7468 154.275 53.6183C155.169 50.8702 155.988 48.6993 155.988 48.6993C155.988 48.6993 155.388 48.8573 154.117 49.0428C153.432 49.139 152.226 49.2111 152.226 49.2111C152.226 49.2111 149.732 53.632 147.738 56.2873C145.744 58.9426 137.262 68.0971 132.257 66.2731C127.638 64.5762 129.173 57.4827 131.852 51.8458C135.775 43.636 146.806 31.8193 153.196 33.3651C159.784 34.9762 153.343 47.047 153.343 47.047C153.343 47.047 153.343 47.0951 153.415 47.1191C153.552 47.1707 153.888 47.205 154.682 47.0539C155.509 46.887 156.319 46.6444 157.101 46.3291C157.101 46.3291 163.713 32.4033 171.038 23.2832C178.362 14.1631 192.963 -1.53176 198.722 2.26399C200.123 3.1949 199.483 6.41356 197.599 10.3192C196.748 10.5943 195.883 10.8236 195.009 11.0062C196.273 8.70818 197.116 6.77424 197.359 5.41395C198.215 0.71134 187.259 10.6353 179.421 21.3183C174.709 27.7522 170.521 34.5562 166.899 41.6642C168.317 40.8038 169.668 39.8381 170.942 38.7753C174.431 35.8653 177.749 32.7536 180.877 29.456C183.893 26.3618 186.72 23.088 189.342 19.6523C190.175 19.6103 191.005 19.5255 191.829 19.3981C188.973 23.2995 185.853 27.0008 182.494 30.4762C179.383 33.6434 175.985 37.0509 173.049 39.5414C170.422 41.7778 167.655 43.8431 164.765 45.7245C164.765 45.7245 157.896 59.561 161.623 60.4609C163.823 60.9831 168.132 54.2984 168.132 54.2984C168.132 54.2984 173.778 45.6524 177.18 41.7673C181.826 36.467 185.817 33.4098 189.812 33.3445C192.141 33.3033 193.511 35.7937 193.511 35.7937L194.608 34.0762H201.364C201.364 34.0762 188.801 55.511 187.797 57.1289ZM149.886 48.7027C148.771 48.1783 147.728 47.5122 146.782 46.7207C145.838 45.9291 145.046 44.971 144.446 43.8936C144.391 43.7837 144.319 43.8627 144.254 43.9623C144.189 44.0619 143.911 44.2818 141.513 47.8371C139.115 51.3924 135.425 58.6953 138.773 59.9319C140.907 60.7289 144.477 56.9709 146.419 54.477C147.739 52.7388 148.936 50.9103 150.003 49.005C150.102 48.7989 150.003 48.7405 149.9 48.7027M153.298 42.7188C153.922 41.0872 154.713 37.8857 153.055 36.6319C151.291 35.2887 146.789 38.4318 146.758 41.6299C146.734 44.931 149.941 46.4115 150.708 46.6176C151.15 46.7344 151.298 46.7241 151.517 46.3668C152.195 45.1939 152.79 43.9749 153.298 42.7188ZM192.011 38.1948C192.097 38.0526 192.163 37.8988 192.206 37.738C192.206 37.738 192.083 36.8139 191.209 36.7796C190.164 36.728 188.746 36.9307 185.022 41.0665C181.928 44.485 179.268 48.274 177.101 52.3473C174.967 56.2633 174.114 59.1694 175.337 59.9045C175.737 60.1048 176.197 60.1512 176.629 60.035C177.458 59.8358 178.4 59.0594 179.839 57.3969C180.507 56.624 181.257 55.5213 182.134 54.3053C184.59 50.9355 190.778 40.3383 192.011 38.1948ZM206.554 7.27919C201.826 10.3398 195.248 13.1188 188.941 12.4971C187.345 14.1562 185.642 16.0661 183.919 18.1615C194.882 20.329 204.44 13.531 209.541 7.73606C211.394 5.65541 212.985 3.35511 214.279 0.886529C211.962 3.31159 209.367 5.45491 206.55 7.27232M175.806 15.2348C170.633 12.5726 166.858 9.32649 162.915 7.29293C159.146 5.35899 156.731 4.56549 153.692 4.97083C153.268 5.04141 152.851 5.1436 152.442 5.27655C152.442 5.27655 154.011 10.6284 147.789 19.6317C141.486 28.7518 135.775 28.7037 134.151 26.1789C132.438 23.5374 134.641 18.1409 138.313 13.349C142.154 8.33719 148.903 4.16015 148.903 4.16015C148.903 4.16015 146.748 2.84795 141.455 5.85364C136.316 8.78032 127.409 15.7432 119.187 27.4946C110.965 39.246 109.33 45.7004 108.145 50.7947C106.96 55.8889 108.042 61.3369 113.671 61.3369C119.3 61.3369 125.854 52.7252 127.717 49.7298C131.143 44.1478 133.384 35.6048 128.714 36.783C126.405 37.3601 124.541 39.9261 123.363 42.3856C122.612 43.9642 122.04 45.6223 121.657 47.3287C120.022 48.0044 118.487 48.9 117.093 49.9908C115.543 51.1507 114.097 52.4437 112.77 53.8553C112.77 53.8553 112.77 49.7916 116.018 43.2066C119.266 36.6216 125.199 33.5884 128.55 33.3102C131.588 33.0628 135.528 35.6391 132.188 45.1611C128.848 54.6832 119.005 66.2216 108.659 66.3899C99.111 66.5307 92.8484 54.2984 106.134 32.9495C120.814 9.35397 138.101 2.10941 143.713 1.29874C149.324 0.488061 151.14 2.96818 151.14 2.96818C154.512 1.57634 158.155 0.970275 161.795 1.19569C168.646 1.65942 173.943 6.51661 180.925 9.92076C179.099 11.6967 177.369 13.5241 175.806 15.2348ZM150.308 5.9773C150.308 5.9773 146.299 7.58835 141.64 12.7306C136.981 17.8729 134.271 23.6645 136.282 25.2068C137.049 25.7908 138.817 25.8938 142.061 22.9775C145.031 20.3763 147.367 17.1271 148.889 13.4795C150.945 8.37842 150.308 6.04257 150.308 5.9773Z" fill="#E62B29"/>
<path d="M200.404 60.983C200.101 60.675 199.74 60.4304 199.342 60.2634C198.944 60.0965 198.517 60.0105 198.085 60.0105C197.653 60.0105 197.226 60.0965 196.828 60.2634C196.43 60.4304 196.069 60.675 195.766 60.983C195.452 61.28 195.203 61.6392 195.035 62.0378C194.867 62.4363 194.783 62.8656 194.789 63.2983C194.775 63.74 194.85 64.1802 195.008 64.5925C195.167 65.0049 195.407 65.381 195.714 65.6985C196.02 66.0161 196.387 66.2686 196.793 66.441C197.199 66.6135 197.636 66.7023 198.076 66.7023C198.517 66.7023 198.954 66.6135 199.36 66.441C199.765 66.2686 200.133 66.0161 200.439 65.6985C200.746 65.381 200.986 65.0049 201.145 64.5925C201.303 64.1802 201.378 63.74 201.364 63.2983C201.372 62.8669 201.29 62.4385 201.125 62.0401C200.96 61.6417 200.715 61.2818 200.404 60.983ZM200.082 65.3455C199.547 65.8695 198.828 66.1627 198.08 66.1627C197.332 66.1627 196.613 65.8695 196.077 65.3455C195.81 65.0742 195.6 64.7522 195.458 64.3983C195.316 64.0444 195.246 63.6658 195.252 63.2845C195.255 62.7247 195.423 62.1783 195.735 61.7139C196.046 61.2495 196.488 60.8878 197.004 60.6742C197.52 60.4606 198.088 60.4047 198.635 60.5134C199.183 60.6221 199.686 60.8907 200.082 61.2853C200.349 61.544 200.56 61.855 200.701 62.199C200.843 62.543 200.912 62.9125 200.905 63.2845C200.913 63.6659 200.845 64.0451 200.704 64.3993C200.562 64.7535 200.351 65.0754 200.082 65.3455Z" fill="#E62B29"/>
<path d="M199.51 64.8784C199.51 64.7856 199.51 64.6997 199.51 64.6242V64.3597C199.499 64.1562 199.431 63.9598 199.315 63.7929C199.244 63.6933 199.152 63.6109 199.045 63.5514C198.938 63.492 198.82 63.4572 198.698 63.4494C198.883 63.4254 199.061 63.3584 199.215 63.2536C199.335 63.1806 199.432 63.0759 199.496 62.951C199.561 62.8262 199.589 62.686 199.579 62.546C199.595 62.3525 199.549 62.1588 199.447 61.9935C199.346 61.8283 199.193 61.7004 199.013 61.6288C198.692 61.5291 198.356 61.4884 198.02 61.5086H196.769V65.1154H197.389V63.6933H197.897C198.132 63.6726 198.369 63.7165 198.582 63.8204C198.825 63.944 198.924 64.2223 198.924 64.6276V64.9265V65.0467C198.924 65.0742 198.924 65.0742 198.948 65.0845V65.1154H199.548L199.524 65.0742C199.496 65.0467 199.496 64.9883 199.493 64.8784M198.551 63.1608C198.354 63.2178 198.149 63.2421 197.944 63.233H197.389V61.9242H197.927C198.189 61.9062 198.451 61.9559 198.688 62.0685C198.776 62.124 198.845 62.2039 198.888 62.2984C198.932 62.393 198.946 62.4981 198.931 62.6009C198.935 62.7207 198.901 62.8386 198.836 62.9388C198.77 63.039 198.676 63.1165 198.565 63.1608" fill="#E62B29"/>
</g>
<defs>
<clipPath id="clip0_227_55">
<rect width="213.646" height="67.19" fill="white" transform="translate(0.633667 0.865845)"/>
</clipPath>
</defs>
</svg>
