<svg width="538" height="165" viewBox="0 0 538 165" fill="none" xmlns="http://www.w3.org/2000/svg">
<g clip-path="url(#clip0_105_116)">
<path d="M226.593 164.394C214.41 155.949 199.825 151.691 185.025 152.258C181.02 152.365 177.097 153.418 173.574 155.331C170.051 157.244 167.027 159.963 164.749 163.268C158.429 152.258 145.973 145.484 126.686 145.618C95.5461 145.98 64.6579 160.402 40.1568 160.402C16.6868 160.402 -0.454679 145.618 0.115307 119.345C1.1044 73.3386 39.9138 31.7863 68.9327 13.0945C85.5965 2.36179 99.5695 -0.840359 108.723 0.218621C115.378 0.975034 123.383 8.68205 118.346 20.0535C110.927 36.6946 100.668 35.2826 101.028 27.3235C101.246 22.1546 104.674 18.9189 107.264 17.1119C108.941 15.9856 111.807 15.6579 113.299 15.6243C114.766 14.3804 115.89 5.26138 103.937 8.27023C91.9837 11.2791 77.6083 23.0539 63.9035 38.199C50.1986 53.3441 28.8661 82.1467 23.5769 112.311C21.121 126.321 22.7387 151.812 55.8231 151.493C83.853 151.266 125.202 132.759 163.19 133.087C177.943 133.205 190.767 137.197 200.784 143.391C210.633 149.501 222.435 158.351 226.593 164.402M235.587 80.9028H241.32C241.32 80.9028 212.561 122.59 196.266 120.707C187.205 119.673 189.896 108.411 189.896 108.411C189.896 108.411 177.096 123.396 165.436 120.404C154.799 117.681 161.648 99.956 161.648 99.956C160.449 100.452 137.448 126.456 121.304 120.228C104.423 113.706 113.157 91.938 116.392 85.3824C119.1 79.869 122.117 74.4985 122.117 74.4985C122.117 74.4985 119.511 75.2465 117.926 75.6079C116.342 75.9693 113.853 76.4483 113.853 76.4483C113.853 76.4483 105.848 89.4755 100.953 96.031C96.0574 102.587 75.3199 124.901 63.082 120.404C50.8441 115.908 53.8616 98.7962 60.7602 85.1471C71.9 63.0094 98.3373 35.8457 114.263 39.9135C130.366 44.015 117.055 70.1701 117.055 70.1701C117.055 70.1701 120.248 70.6071 127.91 65.3375C138.974 57.7733 153.551 37.4426 169.342 39.8295C176.736 40.9305 183.659 48.5787 174.213 63.0514C171.187 67.7076 166.124 71.8678 162.226 67.758C159.804 65.2366 161.899 60.5552 164.456 57.3615C165.449 56.0615 166.744 55.025 168.229 54.3423C169.713 53.6596 171.341 53.3515 172.972 53.4449C172.972 53.4449 175.579 47.4357 168.965 47.5617C163.584 47.6626 150.005 60.2191 142.318 72.91C135.319 84.584 124.624 104.436 135.319 108.747C145.135 112.723 163.819 90.4672 172.461 78.8268C181.103 67.1865 200.834 40.7372 217.347 39.6698C223.013 39.2832 226.425 44.4856 226.425 44.4856L228.361 41.4516H244.866C244.866 41.4516 213.751 93.6021 211.337 97.5355C209.426 100.637 206.895 107.579 213.936 103.679C220.977 99.7795 235.587 80.9028 235.587 80.9028ZM107.407 75.5827C104.423 74.6455 101.572 73.3263 98.9241 71.6577C96.3667 69.9595 94.2722 67.6485 92.8302 64.934C92.6878 64.6735 92.5201 64.8836 92.3525 65.1021C92.1848 65.3206 91.3298 66.4721 85.4372 75.1204C79.5445 83.7687 70.8355 101.57 79.0081 104.604C84.2302 106.554 93.0314 97.3085 97.8009 91.2152C101.383 86.4456 104.688 81.473 107.7 76.3223C107.918 75.8012 107.7 75.6919 107.407 75.5827ZM113.962 47.8475C109.62 44.5613 98.5888 52.2347 98.5553 60.1014C98.4798 68.1698 108.496 70.4643 109.779 70.5231C110.078 70.6111 110.399 70.5951 110.688 70.4776C110.977 70.3601 111.218 70.1481 111.372 69.8759C112.56 67.573 113.618 65.2048 114.54 62.7825C116.057 58.7567 117.993 50.932 113.962 47.8643M198.135 91.2656C204.841 82.1046 223.198 49.9738 223.198 49.9738C223.118 49.3598 222.833 48.7913 222.388 48.362C221.943 47.9326 221.365 47.6682 220.75 47.6122C218.236 47.4861 213.986 48.3518 205.528 58.95C197.071 69.5482 190.549 77.9948 185.78 86.786C180.549 96.3756 178.236 103.099 181.27 104.957C182.248 105.443 183.369 105.553 184.422 105.268C186.375 104.78 188.932 102.805 192.444 98.7373C194.12 96.8379 195.939 94.3249 198.135 91.2993M272.359 41.5524H256.684L247.833 55.8991H263.508L272.359 41.5524ZM503.916 15.6747C492.349 23.1632 476.255 29.9625 460.823 28.4413C456.917 32.5007 452.751 37.1736 448.535 42.3004C475.358 47.6037 498.744 30.971 511.225 16.7925C515.759 11.7075 519.655 6.08498 522.826 0.0505279C517.155 5.98393 510.808 11.228 503.916 15.6747ZM458.032 137.659C455.794 141.206 453.288 148.039 460.622 143.794C469.541 138.6 482.257 119.253 482.257 119.253H488.007C482.773 127.349 476.939 135.038 470.555 142.256C461.486 152.291 450.438 161.452 442.684 160.553C433.59 159.494 436.431 147.526 436.431 147.526C436.431 147.526 423.405 161.419 414.445 160.427C402.324 159.091 406.012 144.038 406.012 144.038C406.012 144.038 392.274 160.973 382.936 160.427C368.268 159.587 371.922 141.618 376.013 129.07C378.2 122.346 380.204 117.034 380.204 117.034C380.204 117.034 378.737 117.421 375.627 117.875C373.951 118.11 371 118.286 371 118.286C371 118.286 364.898 129.103 360.02 135.6C355.141 142.097 334.387 164.495 322.141 160.032C310.842 155.88 314.597 138.525 321.152 124.733C330.749 104.646 357.74 75.7339 373.372 79.516C389.491 83.4578 373.733 112.992 373.733 112.992C373.733 112.992 373.733 113.109 373.909 113.168C374.244 113.294 375.066 113.378 377.01 113.008C379.033 112.6 381.014 112.006 382.928 111.235C382.928 111.235 399.106 77.1627 417.027 54.8485C434.948 32.5343 470.672 -5.86631 484.763 3.42077C488.191 5.69842 486.624 13.5735 482.013 23.1296C479.932 23.8025 477.817 24.3636 475.676 24.8105C478.769 19.1878 480.832 14.456 481.427 11.1278C483.522 -0.378106 456.716 23.9028 437.538 50.0411C426.009 65.783 415.764 82.4303 406.901 99.8215C410.369 97.7162 413.675 95.3535 416.792 92.7533C425.33 85.6333 433.447 78.0198 441.1 69.9516C448.479 62.381 455.396 54.3708 461.812 45.9649C463.85 45.8622 465.881 45.6546 467.898 45.3429C460.908 54.8885 453.277 63.9445 445.057 72.4477C437.446 80.1968 429.13 88.5341 421.947 94.6275C415.52 100.099 408.75 105.152 401.679 109.756C401.679 109.756 384.873 143.609 393.992 145.811C399.374 147.089 409.919 130.734 409.919 130.734C409.919 130.734 423.732 109.579 432.056 100.074C443.422 87.1054 453.187 79.6253 462.961 79.4656C468.661 79.3647 472.013 85.4581 472.013 85.4581L474.696 81.2558H491.225C491.225 81.2558 460.488 133.7 458.032 137.659ZM365.275 117.043C362.547 115.76 359.994 114.13 357.681 112.193C355.371 110.256 353.433 107.912 351.964 105.276C351.83 105.007 351.654 105.2 351.495 105.444C351.336 105.688 350.657 106.226 344.789 114.925C338.922 123.623 329.894 141.492 338.084 144.517C343.306 146.467 352.04 137.272 356.792 131.171C360.022 126.918 362.952 122.444 365.56 117.782C365.803 117.278 365.56 117.135 365.309 117.043M373.624 102.402C375.149 98.4095 377.086 90.5765 373.029 87.5088C368.712 84.2226 357.698 91.9128 357.622 99.7375C357.564 107.814 365.409 111.437 367.287 111.941C368.368 112.227 368.729 112.201 369.265 111.327C370.924 108.458 372.38 105.475 373.624 102.402ZM468.342 91.3329C468.554 90.985 468.715 90.6086 468.82 90.2151C468.82 90.2151 468.518 87.9542 466.381 87.8702C463.824 87.7441 460.354 88.24 451.243 98.3591C443.673 106.723 437.163 115.994 431.863 125.96C426.641 135.541 424.554 142.651 427.546 144.45C428.525 144.94 429.649 145.054 430.706 144.769C432.735 144.282 435.04 142.382 438.56 138.315C440.195 136.424 442.031 133.726 444.176 130.75C450.186 122.506 465.325 96.5773 468.342 91.3329ZM503.924 15.6915C492.357 23.18 476.263 29.9793 460.832 28.4581C456.926 32.5175 452.76 37.1904 448.543 42.3173C475.366 47.6206 498.753 30.9879 511.234 16.8093C515.766 11.7186 519.659 6.09041 522.826 0.0505279C517.155 5.98393 510.808 11.228 503.916 15.6747M428.695 35.1565C416.038 28.643 406.8 20.7006 397.153 15.7251C387.932 10.9933 382.023 9.05185 374.588 10.0436C373.551 10.2163 372.528 10.4663 371.528 10.7916C371.528 10.7916 375.367 23.886 360.145 45.9144C344.722 68.2286 330.749 68.111 326.776 61.9336C322.585 55.4705 327.975 42.2668 336.96 30.5424C346.357 18.2801 362.87 8.06011 362.87 8.06011C362.87 8.06011 357.597 4.84956 344.647 12.2036C332.074 19.3643 310.28 36.4004 290.163 65.1525C270.046 93.9047 266.047 109.697 263.147 122.161C260.247 134.625 262.896 147.955 276.668 147.955C290.439 147.955 306.474 126.884 311.034 119.556C319.416 105.898 324.898 84.9958 313.474 87.8786C307.824 89.2906 303.264 95.5688 300.381 101.586C298.543 105.449 297.143 109.506 296.206 113.681C292.207 115.334 288.451 117.525 285.041 120.194C281.248 123.032 277.709 126.196 274.463 129.649C274.463 129.649 274.463 119.707 282.409 103.595C290.356 87.4836 304.873 80.0623 313.071 79.3815C320.506 78.7764 330.146 85.0799 321.973 108.377C313.8 131.675 289.719 159.906 264.404 160.318C241.043 160.662 225.721 130.734 258.227 78.4991C294.144 20.7679 336.441 3.04257 350.171 1.05908C363.901 -0.924405 368.343 5.14372 368.343 5.14372C376.593 1.73829 385.507 0.255431 394.412 0.806943C411.176 1.94156 424.135 13.8257 441.217 22.1546C436.75 26.4998 432.517 30.971 428.695 35.1565ZM366.306 12.5061C366.306 12.5061 356.499 16.4479 345.099 29.0296C333.7 41.6113 327.069 55.7814 331.99 59.5551C333.867 60.9839 338.192 61.236 346.13 54.1005C353.397 47.7361 359.112 39.7863 362.836 30.8618C367.865 18.381 366.306 12.6658 366.306 12.5061Z" fill="white"/>
<path d="M488.878 147.089C488.137 146.335 487.253 145.737 486.279 145.328C485.305 144.92 484.259 144.709 483.203 144.709C482.148 144.709 481.102 144.92 480.128 145.328C479.154 145.737 478.27 146.335 477.529 147.089C476.761 147.816 476.152 148.694 475.741 149.67C475.329 150.645 475.125 151.695 475.14 152.754C475.105 153.835 475.287 154.911 475.676 155.92C476.064 156.929 476.651 157.849 477.401 158.626C478.152 159.403 479.05 160.021 480.043 160.443C481.036 160.865 482.104 161.082 483.182 161.082C484.261 161.082 485.329 160.865 486.322 160.443C487.315 160.021 488.213 159.403 488.964 158.626C489.714 157.849 490.301 156.929 490.689 155.92C491.078 154.911 491.26 153.835 491.225 152.754C491.245 151.698 491.046 150.65 490.642 149.675C490.238 148.7 489.638 147.82 488.878 147.089ZM488.09 157.763C486.78 159.045 485.022 159.762 483.191 159.762C481.36 159.762 479.602 159.045 478.292 157.763C477.638 157.099 477.122 156.311 476.776 155.445C476.429 154.579 476.257 153.653 476.271 152.72C476.279 151.35 476.69 150.013 477.453 148.877C478.215 147.741 479.296 146.856 480.558 146.333C481.821 145.811 483.21 145.674 484.55 145.94C485.89 146.206 487.121 146.863 488.09 147.829C488.743 148.461 489.258 149.222 489.604 150.064C489.951 150.906 490.12 151.81 490.102 152.72C490.123 153.653 489.956 154.581 489.61 155.448C489.265 156.314 488.748 157.102 488.09 157.763Z" fill="white"/>
<path d="M486.691 156.62C486.691 156.393 486.691 156.183 486.691 155.998V155.351C486.663 154.853 486.498 154.372 486.213 153.964C486.039 153.72 485.814 153.519 485.553 153.373C485.292 153.228 485.002 153.142 484.704 153.123C485.157 153.065 485.591 152.901 485.97 152.644C486.262 152.466 486.5 152.21 486.657 151.904C486.814 151.599 486.883 151.256 486.858 150.913C486.899 150.44 486.786 149.966 486.537 149.561C486.288 149.157 485.916 148.844 485.475 148.669C484.689 148.425 483.866 148.325 483.044 148.375H479.985V157.2H481.502V153.72H482.743C483.319 153.67 483.899 153.777 484.419 154.031C485.014 154.334 485.257 155.014 485.257 156.006V156.737V157.032C485.257 157.099 485.257 157.099 485.316 157.124V157.2H486.783L486.724 157.099C486.657 157.032 486.657 156.889 486.649 156.62M484.344 152.417C483.862 152.557 483.361 152.616 482.86 152.594H481.502V149.392H482.818C483.458 149.348 484.099 149.469 484.679 149.745C484.893 149.881 485.064 150.076 485.17 150.307C485.275 150.539 485.312 150.796 485.274 151.047C485.283 151.341 485.201 151.629 485.041 151.874C484.88 152.119 484.649 152.309 484.377 152.417" fill="white"/>
</g>
<defs>
<clipPath id="clip0_105_116">
<rect width="522.727" height="164.394" fill="white" transform="translate(0.0985107)"/>
</clipPath>
</defs>
</svg>
